<mxfile host="Electron" modified="2023-05-25T06:10:48.348Z" agent="Mozilla/5.0 (Macintosh; Intel Mac OS X 10_15_7) AppleWebKit/537.36 (KHTML, like Gecko) draw.io/21.2.8 Chrome/112.0.5615.165 Electron/24.2.0 Safari/537.36" etag="416Hok7u3ZeWFF7EBKBI" version="21.2.8" type="device">
  <diagram name="페이지-1" id="nypIDRZcTPIOHTtgzXUC">
    <mxGraphModel dx="1811" dy="1836" grid="1" gridSize="10" guides="1" tooltips="1" connect="1" arrows="1" fold="1" page="1" pageScale="1" pageWidth="827" pageHeight="1169" math="0" shadow="0">
      <root>
        <mxCell id="0" />
        <mxCell id="1" parent="0" />
        <mxCell id="R9BBl8_4HRqvCjWiPNf2-1" value="&lt;p style=&quot;margin:0px;margin-top:4px;text-align:center;&quot;&gt;&lt;i&gt;&amp;lt;&amp;lt;entity&amp;gt;&amp;gt;&lt;/i&gt;&lt;br&gt;&lt;b&gt;Recruitment&lt;/b&gt;&lt;/p&gt;&lt;hr size=&quot;1&quot;&gt;&lt;p style=&quot;margin:0px;margin-left:4px;&quot;&gt;- companyName: string&lt;/p&gt;&lt;p style=&quot;margin:0px;margin-left:4px;&quot;&gt;- businessCode: string&lt;/p&gt;&lt;p style=&quot;margin:0px;margin-left:4px;&quot;&gt;- workName: string&lt;/p&gt;&lt;p style=&quot;margin:0px;margin-left:4px;&quot;&gt;- personNum: string&lt;/p&gt;&lt;p style=&quot;margin:0px;margin-left:4px;&quot;&gt;- deadline: string&lt;/p&gt;&lt;p style=&quot;margin:0px;margin-left:4px;&quot;&gt;- applicantNum: int = 0&lt;/p&gt;&lt;hr size=&quot;1&quot;&gt;&lt;p style=&quot;margin:0px;margin-left:4px;&quot;&gt;+ Recruitment(companyName: string, businessCode: string, workName: string, personNum: string, deadline: string)&lt;/p&gt;&lt;p style=&quot;margin:0px;margin-left:4px;&quot;&gt;+ getRecruitmentInfo(): string&lt;/p&gt;&lt;p style=&quot;margin:0px;margin-left:4px;&quot;&gt;+ getRecruitmentDetails(): string&lt;/p&gt;&lt;p style=&quot;margin:0px;margin-left:4px;&quot;&gt;+ applied()&lt;/p&gt;&lt;p style=&quot;margin:0px;margin-left:4px;&quot;&gt;+ applyReturn(): string&lt;/p&gt;&lt;p style=&quot;margin:0px;margin-left:4px;&quot;&gt;+ applyCanceled()&lt;/p&gt;&lt;p style=&quot;margin:0px;margin-left:4px;&quot;&gt;+ applyCancelReturn(): string&lt;/p&gt;" style="verticalAlign=top;align=left;overflow=fill;fontSize=12;fontFamily=Helvetica;html=1;" vertex="1" parent="1">
          <mxGeometry x="1241" y="-660" width="629" height="250" as="geometry" />
        </mxCell>
        <mxCell id="R9BBl8_4HRqvCjWiPNf2-2" value="&lt;p style=&quot;margin:0px;margin-top:4px;text-align:center;&quot;&gt;&lt;i&gt;&amp;lt;&amp;lt;entity&amp;gt;&amp;gt;&lt;/i&gt;&lt;br&gt;&lt;b&gt;CompanyMember&lt;/b&gt;&lt;/p&gt;&lt;hr size=&quot;1&quot;&gt;&lt;p style=&quot;margin:0px;margin-left:4px;&quot;&gt;- businessCode: string&lt;/p&gt;&lt;p style=&quot;margin:0px;margin-left:4px;&quot;&gt;- recruitmentList[0..20]: string&lt;/p&gt;&lt;p style=&quot;margin:0px;margin-left:4px;&quot;&gt;- numberOfRecruitments: int = 0&lt;/p&gt;&lt;p style=&quot;margin:0px;margin-left:4px;&quot;&gt;- pRecruitment: Recruitment*&lt;/p&gt;&lt;hr size=&quot;1&quot;&gt;&lt;p style=&quot;margin:0px;margin-left:4px;&quot;&gt;+ CompanyMember(name:string, code: string, id: string, pw: string)&lt;span style=&quot;background-color: initial;&quot;&gt;&amp;nbsp;&lt;/span&gt;&lt;/p&gt;&amp;nbsp;+ createNewAccount(name: string, code: string, id: string, pw: string, recruitments: Recruitments*): Member*&lt;br&gt;&amp;nbsp;+ listRecruitments(): Recruitments*&lt;br&gt;&amp;nbsp;+ getRecruitmentStatistics(forPrint: *string)&lt;br&gt;&amp;nbsp;+ addNewRecruitment(workName: string, personNum: string, deadline: string)" style="verticalAlign=top;align=left;overflow=fill;fontSize=12;fontFamily=Helvetica;html=1;" vertex="1" parent="1">
          <mxGeometry x="110" y="-637.5" width="590" height="195" as="geometry" />
        </mxCell>
        <mxCell id="R9BBl8_4HRqvCjWiPNf2-3" value="&lt;span style=&quot;font-size: 12px;&quot;&gt;&lt;b&gt;manage&lt;/b&gt;&lt;/span&gt;" style="endArrow=open;html=1;endSize=12;startArrow=diamondThin;startSize=14;startFill=1;rounded=0;" edge="1" parent="1" source="R9BBl8_4HRqvCjWiPNf2-2" target="R9BBl8_4HRqvCjWiPNf2-1">
          <mxGeometry y="10" relative="1" as="geometry">
            <mxPoint x="620" y="-495" as="sourcePoint" />
            <mxPoint x="780" y="-495" as="targetPoint" />
            <mxPoint as="offset" />
          </mxGeometry>
        </mxCell>
        <mxCell id="R9BBl8_4HRqvCjWiPNf2-4" value="&lt;font style=&quot;font-size: 14px;&quot;&gt;&lt;b&gt;1&lt;/b&gt;&lt;/font&gt;" style="edgeLabel;resizable=0;html=1;align=left;verticalAlign=top;" connectable="0" vertex="1" parent="R9BBl8_4HRqvCjWiPNf2-3">
          <mxGeometry x="-1" relative="1" as="geometry">
            <mxPoint x="20" y="-30" as="offset" />
          </mxGeometry>
        </mxCell>
        <mxCell id="R9BBl8_4HRqvCjWiPNf2-5" value="&lt;font style=&quot;font-size: 14px;&quot;&gt;&lt;b&gt;0..*&lt;/b&gt;&lt;/font&gt;" style="edgeLabel;resizable=0;html=1;align=right;verticalAlign=top;" connectable="0" vertex="1" parent="R9BBl8_4HRqvCjWiPNf2-3">
          <mxGeometry x="1" relative="1" as="geometry">
            <mxPoint x="-20" y="-30" as="offset" />
          </mxGeometry>
        </mxCell>
        <mxCell id="R9BBl8_4HRqvCjWiPNf2-6" value="&lt;p style=&quot;margin:0px;margin-top:4px;text-align:center;&quot;&gt;&lt;i&gt;&amp;lt;&amp;lt;entity&amp;gt;&amp;gt;&lt;/i&gt;&lt;br&gt;&lt;b&gt;GeneralMember&lt;/b&gt;&lt;/p&gt;&lt;hr size=&quot;1&quot;&gt;&lt;p style=&quot;margin:0px;margin-left:4px;&quot;&gt;- personalCode: string&lt;/p&gt;&lt;p style=&quot;margin:0px;margin-left:4px;&quot;&gt;- applyList[0..20]: Recruitment*&lt;/p&gt;&lt;p style=&quot;margin:0px;margin-left:4px;&quot;&gt;- applyCnt: int = 0&lt;/p&gt;&lt;hr size=&quot;1&quot;&gt;&lt;p style=&quot;margin:0px;margin-left:4px;&quot;&gt;+ GeneralMember(name: string, code: string, id: string, pw: string)&lt;/p&gt;&lt;p style=&quot;margin:0px;margin-left:4px;&quot;&gt;+ createNewAccount(name: string, code: string, id: string, pw: string, recruitments: Recruitments*): Member*&lt;br&gt;&lt;/p&gt;&lt;p style=&quot;margin:0px;margin-left:4px;&quot;&gt;+ apply(businessCode: string, recruitments: Recruitments*)&lt;/p&gt;&lt;p style=&quot;margin:0px;margin-left:4px;&quot;&gt;+ listApplyInfo(): Recruitment**&lt;/p&gt;&lt;p style=&quot;margin:0px;margin-left:4px;&quot;&gt;+ cancelApply(businessCode: string, recruitments: Recruitments*)&lt;/p&gt;&lt;p style=&quot;margin:0px;margin-left:4px;&quot;&gt;+ getApplyInfoStatistics(forPrint *string)&lt;/p&gt;" style="verticalAlign=top;align=left;overflow=fill;fontSize=12;fontFamily=Helvetica;html=1;" vertex="1" parent="1">
          <mxGeometry x="120" y="-265" width="590" height="205" as="geometry" />
        </mxCell>
        <mxCell id="R9BBl8_4HRqvCjWiPNf2-7" value="&lt;p style=&quot;margin:0px;margin-top:4px;text-align:center;&quot;&gt;&lt;i&gt;&amp;lt;&amp;lt;entity&amp;gt;&amp;gt;&lt;/i&gt;&lt;br&gt;&lt;b&gt;Recruitments&lt;/b&gt;&lt;/p&gt;&lt;hr size=&quot;1&quot;&gt;&lt;p style=&quot;margin:0px;margin-left:4px;&quot;&gt;- recruitmentList[0..50]: Recruitment*&lt;/p&gt;&lt;p style=&quot;margin:0px;margin-left:4px;&quot;&gt;- cnt: int = 0&lt;/p&gt;&lt;hr size=&quot;1&quot;&gt;&lt;p style=&quot;margin:0px;margin-left:4px;&quot;&gt;+ addPersonalRecruitmentList(recruitmentList: Recruitment*)&lt;/p&gt;" style="verticalAlign=top;align=left;overflow=fill;fontSize=12;fontFamily=Helvetica;html=1;" vertex="1" parent="1">
          <mxGeometry x="1381" y="-220" width="349" height="112.5" as="geometry" />
        </mxCell>
        <mxCell id="R9BBl8_4HRqvCjWiPNf2-8" value="" style="endArrow=none;html=1;endSize=12;startArrow=none;startSize=14;startFill=0;rounded=0;endFill=0;" edge="1" parent="1" source="R9BBl8_4HRqvCjWiPNf2-6" target="R9BBl8_4HRqvCjWiPNf2-7">
          <mxGeometry x="0.037" y="10" relative="1" as="geometry">
            <mxPoint x="972.1232876712329" y="-425" as="sourcePoint" />
            <mxPoint x="967.4657534246576" y="-255" as="targetPoint" />
            <mxPoint as="offset" />
          </mxGeometry>
        </mxCell>
        <mxCell id="R9BBl8_4HRqvCjWiPNf2-9" value="&lt;font style=&quot;font-size: 14px;&quot;&gt;&lt;b&gt;0..*&lt;/b&gt;&lt;/font&gt;" style="edgeLabel;resizable=0;html=1;align=left;verticalAlign=top;" connectable="0" vertex="1" parent="R9BBl8_4HRqvCjWiPNf2-8">
          <mxGeometry x="-1" relative="1" as="geometry">
            <mxPoint x="10" y="-30" as="offset" />
          </mxGeometry>
        </mxCell>
        <mxCell id="R9BBl8_4HRqvCjWiPNf2-10" value="&lt;font style=&quot;font-size: 14px;&quot;&gt;&lt;b&gt;1&lt;/b&gt;&lt;/font&gt;" style="edgeLabel;resizable=0;html=1;align=right;verticalAlign=top;" connectable="0" vertex="1" parent="R9BBl8_4HRqvCjWiPNf2-8">
          <mxGeometry x="1" relative="1" as="geometry">
            <mxPoint x="-20" y="-30" as="offset" />
          </mxGeometry>
        </mxCell>
        <mxCell id="R9BBl8_4HRqvCjWiPNf2-11" value="&lt;font style=&quot;font-size: 12px;&quot;&gt;&lt;b&gt;consist of...&lt;/b&gt;&lt;/font&gt;" style="endArrow=open;html=1;endSize=12;startArrow=diamondThin;startSize=14;startFill=0;rounded=0;" edge="1" parent="1" source="R9BBl8_4HRqvCjWiPNf2-7" target="R9BBl8_4HRqvCjWiPNf2-1">
          <mxGeometry x="0.0588" y="-35" relative="1" as="geometry">
            <mxPoint x="590" y="-533.9285714285716" as="sourcePoint" />
            <mxPoint x="870" y="-531.0714285714287" as="targetPoint" />
            <mxPoint as="offset" />
          </mxGeometry>
        </mxCell>
        <mxCell id="R9BBl8_4HRqvCjWiPNf2-12" value="&lt;font style=&quot;font-size: 14px;&quot;&gt;&lt;b&gt;1&lt;/b&gt;&lt;/font&gt;" style="edgeLabel;resizable=0;html=1;align=left;verticalAlign=top;" connectable="0" vertex="1" parent="R9BBl8_4HRqvCjWiPNf2-11">
          <mxGeometry x="-1" relative="1" as="geometry">
            <mxPoint x="20" y="-30" as="offset" />
          </mxGeometry>
        </mxCell>
        <mxCell id="R9BBl8_4HRqvCjWiPNf2-13" value="&lt;font style=&quot;font-size: 14px;&quot;&gt;&lt;b&gt;0..*&lt;/b&gt;&lt;/font&gt;" style="edgeLabel;resizable=0;html=1;align=right;verticalAlign=top;" connectable="0" vertex="1" parent="R9BBl8_4HRqvCjWiPNf2-11">
          <mxGeometry x="1" relative="1" as="geometry">
            <mxPoint x="35" as="offset" />
          </mxGeometry>
        </mxCell>
        <mxCell id="R9BBl8_4HRqvCjWiPNf2-14" value="&lt;p style=&quot;margin:0px;margin-top:4px;text-align:center;&quot;&gt;&lt;i&gt;&amp;lt;&amp;lt;entity&amp;gt;&amp;gt;&lt;/i&gt;&lt;br&gt;&lt;b&gt;Member&lt;/b&gt;&lt;/p&gt;&lt;hr size=&quot;1&quot;&gt;&lt;p style=&quot;margin:0px;margin-left:4px;&quot;&gt;- id: string&lt;/p&gt;&lt;p style=&quot;margin:0px;margin-left:4px;&quot;&gt;- pw: string&lt;/p&gt;&lt;p style=&quot;margin:0px;margin-left:4px;&quot;&gt;- name: string&lt;/p&gt;&lt;hr size=&quot;1&quot;&gt;&lt;p style=&quot;margin:0px;margin-left:4px;&quot;&gt;+ Member(id: string, pw: string, name:string)&lt;/p&gt;&lt;p style=&quot;margin:0px;margin-left:4px;&quot;&gt;+ createNewAccount(name: string, code: string, id: string, pw: string, recruitments: Recruitments*): Member*&lt;/p&gt;&lt;p style=&quot;margin:0px;margin-left:4px;&quot;&gt;+ deleteUserInfo()&lt;/p&gt;&lt;p style=&quot;margin:0px;margin-left:4px;&quot;&gt;+ logIn(id: string, pw: string): bool&lt;/p&gt;&lt;p style=&quot;margin:0px;margin-left:4px;&quot;&gt;+ logOut()&lt;/p&gt;&lt;p style=&quot;margin:0px;margin-left:4px;&quot;&gt;&lt;br&gt;&lt;/p&gt;" style="verticalAlign=top;align=left;overflow=fill;fontSize=12;fontFamily=Helvetica;html=1;" vertex="1" parent="1">
          <mxGeometry x="-690" y="-442.5" width="590" height="195" as="geometry" />
        </mxCell>
        <mxCell id="R9BBl8_4HRqvCjWiPNf2-15" value="" style="endArrow=block;endSize=16;endFill=0;html=1;rounded=0;" edge="1" parent="1" source="R9BBl8_4HRqvCjWiPNf2-2" target="R9BBl8_4HRqvCjWiPNf2-14">
          <mxGeometry width="160" relative="1" as="geometry">
            <mxPoint x="400" y="-395" as="sourcePoint" />
            <mxPoint x="560" y="-395" as="targetPoint" />
          </mxGeometry>
        </mxCell>
        <mxCell id="R9BBl8_4HRqvCjWiPNf2-16" value="" style="endArrow=block;endSize=16;endFill=0;html=1;rounded=0;" edge="1" parent="1" source="R9BBl8_4HRqvCjWiPNf2-6" target="R9BBl8_4HRqvCjWiPNf2-14">
          <mxGeometry width="160" relative="1" as="geometry">
            <mxPoint x="410" y="-385" as="sourcePoint" />
            <mxPoint x="570" y="-385" as="targetPoint" />
          </mxGeometry>
        </mxCell>
        <mxCell id="R9BBl8_4HRqvCjWiPNf2-18" value="" style="triangle;whiteSpace=wrap;html=1;fillColor=#000000;" vertex="1" parent="1">
          <mxGeometry x="950" y="-220" width="23" height="19" as="geometry" />
        </mxCell>
        <mxCell id="R9BBl8_4HRqvCjWiPNf2-19" value="&lt;b&gt;&lt;font style=&quot;font-size: 13px;&quot;&gt;get reference from&lt;/font&gt;&lt;/b&gt;" style="text;html=1;strokeColor=none;fillColor=none;align=center;verticalAlign=middle;whiteSpace=wrap;rounded=0;" vertex="1" parent="1">
          <mxGeometry x="900" y="-260" width="120" height="30" as="geometry" />
        </mxCell>
      </root>
    </mxGraphModel>
  </diagram>
</mxfile>
